<?xml version="1.0" encoding="UTF-8"?>
<svg width="512px" height="512px" viewBox="0 0 512 512" version="1.1" xmlns="http://www.w3.org/2000/svg" xmlns:xlink="http://www.w3.org/1999/xlink">
	<circle cx="256" cy="256" r="256" fill="#10506d"/>
	<g id="g8" stroke="none" stroke-width="1" fill="none" fill-rule="evenodd" transform="matrix(1.3,0,0,-1.3,50,483)">
		<g id="g10" transform="scale(0.1)">
			<path
				d="m 1351.01,1522.61 c 0.13,2.96 0.45,5.88 0.45,8.87 0,112.46 -91.17,203.62 -203.62,203.62 -112.45,0 -203.617,-91.16 -203.617,-203.62 0,-2.99 0.324,-5.91 0.453,-8.87"
				style="fill:none;stroke:#ffffff;stroke-width:160;stroke-linecap:round;stroke-linejoin:miter;stroke-miterlimit:10;stroke-dasharray:none;stroke-opacity:1"
				id="path12" />
			<path
				d="m 2267.14,1522.61 c 0.13,2.96 0.44,5.88 0.44,8.87 0,112.46 -91.15,203.62 -203.61,203.62 -112.45,0 -203.62,-91.16 -203.62,-203.62 0,-2.99 0.32,-5.91 0.45,-8.87"
				style="fill:none;stroke:#ffffff;stroke-width:160;stroke-linecap:round;stroke-linejoin:miter;stroke-miterlimit:10;stroke-dasharray:none;stroke-opacity:1"
				id="path14" />
			<path
				d="m 2831.76,1428.5 h 152.74 c 84.34,0 152.71,68.37 152.71,152.72 v 407.23 c 0,84.34 -68.37,152.71 -152.71,152.71 h -131.71"
				style="fill:none;stroke:#ffffff;stroke-width:160;stroke-linecap:butt;stroke-linejoin:miter;stroke-miterlimit:10;stroke-dasharray:none;stroke-opacity:1"
				id="path16" />
			<path
				d="m 2959.02,2141.16 v 407.49"
				style="fill:none;stroke:#ffffff;stroke-width:130;stroke-linecap:butt;stroke-linejoin:miter;stroke-miterlimit:10;stroke-dasharray:none;stroke-opacity:1"
				id="path18" />
			<path
				d="m 2831.76,2675.91 c 0,-70.29 56.98,-127.26 127.26,-127.26 70.29,0 127.26,56.97 127.26,127.26 0,70.28 -56.97,127.25 -127.26,127.25 -70.28,0 -127.26,-56.97 -127.26,-127.25 z"
				style="fill:none;stroke:#ffffff;stroke-width:160;stroke-linecap:butt;stroke-linejoin:miter;stroke-miterlimit:10;stroke-dasharray:none;stroke-opacity:1"
				id="path20" />
			<path
				d="M 385.445,1428.5 H 232.711 C 148.371,1428.5 80,1496.87 80,1581.22 v 407.23 c 0,84.34 68.371,152.71 152.711,152.71 h 131.711"
				style="fill:none;stroke:#ffffff;stroke-width:160;stroke-linecap:butt;stroke-linejoin:miter;stroke-miterlimit:10;stroke-dasharray:none;stroke-opacity:1"
				id="path22" />
			<path
				d="m 258.184,2141.16 v 407.49"
				style="fill:none;stroke:#ffffff;stroke-width:130;stroke-linecap:butt;stroke-linejoin:miter;stroke-miterlimit:10;stroke-dasharray:none;stroke-opacity:1"
				id="path24" />
			<path
				d="m 385.445,2675.91 c 0,-70.29 -56.972,-127.26 -127.261,-127.26 -70.282,0 -127.254,56.97 -127.254,127.26 0,70.28 56.972,127.25 127.254,127.25 70.289,0 127.261,-56.97 127.261,-127.25 z"
				style="fill:none;stroke:#ffffff;stroke-width:160;stroke-linecap:butt;stroke-linejoin:miter;stroke-miterlimit:10;stroke-dasharray:none;stroke-opacity:1"
				id="path26" />
			<path
				d="m 353.391,1992.95 c 72.218,439.3 380.32,817.46 795.109,978.59 424.6,164.94 917.87,85.41 1269.26,-204.05 350.15,-288.45 522.22,-752.06 445.55,-1199.23 -75.46,-440.12 -387.73,-817.151 -805.41,-974.612 -51.24,-19.316 -103.73,-35.316 -157.04,-47.808 l -37.28,-426.391 c 0,-33.0701 -42.7,-51.4099 -71.4,-30.6677 L 913.688,719.309 C 494.957,993.16 272.199,1499.15 353.391,1992.95 Z"
				style="fill:none;stroke:#ffffff;stroke-width:160;stroke-linecap:butt;stroke-linejoin:miter;stroke-miterlimit:10;stroke-dasharray:none;stroke-opacity:1"
				id="path28" />
			<path
				d="M 2378.52,2120.43 H 839.68 c -114.442,0 -207.203,-92.77 -207.203,-207.2 v -156.68 c 0,-338.41 274.39,-612.74 612.873,-612.74 h 727.49 c 338.48,0 612.88,274.33 612.88,612.74 v 156.68 c 0,114.43 -92.77,207.2 -207.2,207.2 z"
				style="fill:none;stroke:#ffffff;stroke-width:160;stroke-linecap:butt;stroke-linejoin:miter;stroke-miterlimit:10;stroke-dasharray:none;stroke-opacity:1"
				id="path30" />
		</g>
	</g>
</svg>
