<?xml version="1.0" encoding="UTF-8" standalone="no"?>
<!-- Created with Inkscape (http://www.inkscape.org/) -->

<svg
   version="1.1"
   id="svg2"
   xml:space="preserve"
   width="1921.12"
   height="418.18668"
   viewBox="0 0 1921.12 418.18668"
   sodipodi:docname="806701bf5cb431b81ced56392755397b.eps"
   xmlns:inkscape="http://www.inkscape.org/namespaces/inkscape"
   xmlns:sodipodi="http://sodipodi.sourceforge.net/DTD/sodipodi-0.dtd"
   xmlns="http://www.w3.org/2000/svg"
   xmlns:svg="http://www.w3.org/2000/svg"><defs
     id="defs6" /><sodipodi:namedview
     id="namedview4"
     pagecolor="#ffffff"
     bordercolor="#666666"
     borderopacity="1.0"
     inkscape:pageshadow="2"
     inkscape:pageopacity="0.0"
     inkscape:pagecheckerboard="0" /><g
     id="g8"
     inkscape:groupmode="layer"
     inkscape:label="ink_ext_XXXXXX"
     transform="matrix(1.3333333,0,0,-1.3333333,0,418.18667)"><g
       id="g10"
       transform="scale(0.1)"><path
         d="m 1351.01,1522.61 c 0.13,2.96 0.45,5.88 0.45,8.87 0,112.46 -91.17,203.62 -203.62,203.62 -112.45,0 -203.617,-91.16 -203.617,-203.62 0,-2.99 0.324,-5.91 0.453,-8.87"
         style="fill:none;stroke:#214d6c;stroke-width:160;stroke-linecap:round;stroke-linejoin:miter;stroke-miterlimit:10;stroke-dasharray:none;stroke-opacity:1"
         id="path12" /><path
         d="m 2267.14,1522.61 c 0.13,2.96 0.44,5.88 0.44,8.87 0,112.46 -91.15,203.62 -203.61,203.62 -112.45,0 -203.62,-91.16 -203.62,-203.62 0,-2.99 0.32,-5.91 0.45,-8.87"
         style="fill:none;stroke:#214d6c;stroke-width:160;stroke-linecap:round;stroke-linejoin:miter;stroke-miterlimit:10;stroke-dasharray:none;stroke-opacity:1"
         id="path14" /><path
         d="m 2831.76,1428.5 h 152.74 c 84.34,0 152.71,68.37 152.71,152.72 v 407.23 c 0,84.34 -68.37,152.71 -152.71,152.71 h -131.71"
         style="fill:none;stroke:#214d6c;stroke-width:160;stroke-linecap:butt;stroke-linejoin:miter;stroke-miterlimit:10;stroke-dasharray:none;stroke-opacity:1"
         id="path16" /><path
         d="m 2959.02,2141.16 v 407.49"
         style="fill:none;stroke:#214d6c;stroke-width:130;stroke-linecap:butt;stroke-linejoin:miter;stroke-miterlimit:10;stroke-dasharray:none;stroke-opacity:1"
         id="path18" /><path
         d="m 2831.76,2675.91 c 0,-70.29 56.98,-127.26 127.26,-127.26 70.29,0 127.26,56.97 127.26,127.26 0,70.28 -56.97,127.25 -127.26,127.25 -70.28,0 -127.26,-56.97 -127.26,-127.25 z"
         style="fill:none;stroke:#214d6c;stroke-width:160;stroke-linecap:butt;stroke-linejoin:miter;stroke-miterlimit:10;stroke-dasharray:none;stroke-opacity:1"
         id="path20" /><path
         d="M 385.445,1428.5 H 232.711 C 148.371,1428.5 80,1496.87 80,1581.22 v 407.23 c 0,84.34 68.371,152.71 152.711,152.71 h 131.711"
         style="fill:none;stroke:#214d6c;stroke-width:160;stroke-linecap:butt;stroke-linejoin:miter;stroke-miterlimit:10;stroke-dasharray:none;stroke-opacity:1"
         id="path22" /><path
         d="m 258.184,2141.16 v 407.49"
         style="fill:none;stroke:#214d6c;stroke-width:130;stroke-linecap:butt;stroke-linejoin:miter;stroke-miterlimit:10;stroke-dasharray:none;stroke-opacity:1"
         id="path24" /><path
         d="m 385.445,2675.91 c 0,-70.29 -56.972,-127.26 -127.261,-127.26 -70.282,0 -127.254,56.97 -127.254,127.26 0,70.28 56.972,127.25 127.254,127.25 70.289,0 127.261,-56.97 127.261,-127.25 z"
         style="fill:none;stroke:#214d6c;stroke-width:160;stroke-linecap:butt;stroke-linejoin:miter;stroke-miterlimit:10;stroke-dasharray:none;stroke-opacity:1"
         id="path26" /><path
         d="m 353.391,1992.95 c 72.218,439.3 380.32,817.46 795.109,978.59 424.6,164.94 917.87,85.41 1269.26,-204.05 350.15,-288.45 522.22,-752.06 445.55,-1199.23 -75.46,-440.12 -387.73,-817.151 -805.41,-974.612 -51.24,-19.316 -103.73,-35.316 -157.04,-47.808 l -37.28,-426.391 c 0,-33.0701 -42.7,-51.4099 -71.4,-30.6677 L 913.688,719.309 C 494.957,993.16 272.199,1499.15 353.391,1992.95 Z"
         style="fill:none;stroke:#214d6c;stroke-width:160;stroke-linecap:butt;stroke-linejoin:miter;stroke-miterlimit:10;stroke-dasharray:none;stroke-opacity:1"
         id="path28" /><path
         d="M 2378.52,2120.43 H 839.68 c -114.442,0 -207.203,-92.77 -207.203,-207.2 v -156.68 c 0,-338.41 274.39,-612.74 612.873,-612.74 h 727.49 c 338.48,0 612.88,274.33 612.88,612.74 v 156.68 c 0,114.43 -92.77,207.2 -207.2,207.2 z"
         style="fill:none;stroke:#214d6c;stroke-width:160;stroke-linecap:butt;stroke-linejoin:miter;stroke-miterlimit:10;stroke-dasharray:none;stroke-opacity:1"
         id="path30" /><path
         d="m 4181.8,979.32 c 60.72,-112.511 145.02,-200.031 252.82,-262.601 107.77,-62.629 230.29,-93.899 367.5,-93.899 139.14,0 262.61,31.27 370.43,93.899 107.76,62.57 192.06,150.09 252.83,262.601 60.72,112.45 91.14,241.06 91.14,385.84 0,144.73 -30.42,272.88 -91.14,384.37 -60.77,111.5 -145.07,198.51 -252.83,261.14 -107.82,62.58 -231.29,93.89 -370.43,93.89 -137.21,0 -259.73,-31.31 -367.5,-93.89 -107.8,-62.63 -192.1,-149.64 -252.82,-261.14 -60.78,-111.49 -91.15,-239.64 -91.15,-384.37 0,-144.78 30.37,-273.39 91.15,-385.84 z m 170.91,-436.66 c -137.48,79.309 -245.49,190.828 -324.05,334.602 -78.55,143.718 -117.83,307.028 -117.83,489.998 0,182.92 39.28,345.31 117.83,487.19 78.56,141.84 186.57,252.44 324.05,331.8 137.47,79.32 293.17,119 467.11,119 157.12,0 297.39,-32.2 420.83,-96.6 123.45,-64.39 221.64,-154.48 294.58,-270.19 v 335.99 h 211.95 V 454.449 H 5535.23 V 793.25 c -74.83,-115.762 -173.5,-206.281 -295.98,-271.602 -122.53,-65.359 -262.31,-98 -419.43,-98 -173.94,0 -329.64,39.641 -467.11,119.012"
         style="fill:#214e6c;fill-opacity:1;fill-rule:nonzero;stroke:none"
         id="path32" /><path
         d="m 6171.46,2717.86 h 212.6 V 454.449 h -212.6 V 2717.86"
         style="fill:#214e6c;fill-opacity:1;fill-rule:nonzero;stroke:none"
         id="path34" /><path
         d="m 6809.26,2717.86 h 212.6 V 454.449 h -212.6 V 2717.86"
         style="fill:#214e6c;fill-opacity:1;fill-rule:nonzero;stroke:none"
         id="path36" /><path
         d="m 7588.78,1267.91 c 0,469.05 368.09,842.97 828.19,842.97 285.92,0 538.97,-144.32 683.58,-364.08 l -82.17,-62.32 c -128.16,200.09 -348.35,324.72 -598.12,324.72 -400.95,0 -719.74,-334.56 -719.74,-741.29 0,-410 318.79,-744.57 719.74,-744.57 249.77,0 469.96,127.922 598.12,328.012 l 82.17,-65.602 C 8955.94,565.988 8702.89,421.66 8416.97,421.66 c -460.1,0 -828.19,373.93 -828.19,846.25"
         style="fill:#040606;fill-opacity:1;fill-rule:nonzero;stroke:none"
         id="path38" /><path
         d="M 9557.35,454.469 V 2694.45 h 108.45 v -645.89 l -3.28,-341.12 c 111.73,255.84 331.92,403.44 640.88,403.44 331.9,0 654,-223.04 654,-793.77 V 454.469 h -108.5 v 852.811 c 0,518.24 -282.6,701.92 -568.5,701.92 -361.55,0 -614.6,-252.56 -614.6,-728.17 V 454.469 h -108.45"
         style="fill:#040606;fill-opacity:1;fill-rule:nonzero;stroke:none"
         id="path40" /><path
         d="m 12942.4,1264.63 c 0,416.57 -305.7,744.57 -709.9,744.57 -394.4,0 -709.9,-328 -709.9,-744.57 0,-416.56 315.5,-741.29 709.9,-741.29 397.7,0 709.9,324.73 709.9,741.29 z m -1528.2,0 c 0,478.89 354.9,846.25 808.5,846.25 325.3,0 598.1,-183.68 719.7,-455.92 v 521.1 h 108.4 V 454.469 h -108.4 V 880.871 C 12824.1,611.91 12548,421.66 12222.7,421.66 c -453.6,0 -808.5,370.649 -808.5,842.97"
         style="fill:#040606;fill-opacity:1;fill-rule:nonzero;stroke:none"
         id="path42" /><path
         d="M 13813.3,844.789 V 2176.05 l -409.1,0.01 v 98.41 l 409.1,-0.02 v 420 h 108.4 v -420 h 486.7 v -98.4 h -486.7 V 848.07 c 0,-226.32 131.5,-324.73 299.1,-324.73 85.4,0 102.3,7.328 187.6,28.949 V 450.48 c -92,-32.8 -112,-28.82 -204,-28.82 -223.5,0 -391.1,141.051 -391.1,423.129"
         style="fill:#040606;fill-opacity:1;fill-rule:nonzero;stroke:none"
         id="path44" /></g></g></svg>
